#define format_width 32
#define format_height 16
static unsigned char format_bits[] = {
   0x00, 0xc0, 0x03, 0x00, 0x00, 0xf0, 0x0f, 0x00, 0x00, 0xf8, 0x1f, 0x00,
   0x00, 0xf8, 0x1f, 0x00, 0x00, 0xfc, 0x3f, 0x00, 0x00, 0xfc, 0x3f, 0x00,
   0x00, 0xfc, 0x3f, 0x00, 0x00, 0xfc, 0x3f, 0x00, 0x00, 0xf8, 0x1f, 0x00,
   0x00, 0xf8, 0x1f, 0x00, 0x00, 0xf0, 0x0f, 0x00, 0x67, 0xc6, 0x17, 0xe9,
   0x91, 0x0a, 0xb7, 0x55, 0x93, 0x86, 0x51, 0x5d, 0x91, 0xca, 0x10, 0x55,
   0x61, 0x2a, 0x10, 0x55 };
