#define ha_test_width 32
#define ha_test_height 16
static unsigned char ha_test_bits[] = {
   0xfc, 0x01, 0xe0, 0x03, 0x54, 0x01, 0xf0, 0x07, 0x54, 0x01, 0x38, 0x0e,
   0x54, 0x01, 0xdc, 0x1d, 0x54, 0x01, 0xac, 0x1a, 0x54, 0x03, 0xa6, 0x32,
   0x54, 0x0f, 0xde, 0x3d, 0xd4, 0x1e, 0x6e, 0x3b, 0xb4, 0x3d, 0xb6, 0x36,
   0x74, 0x7b, 0xb6, 0x36, 0x74, 0x77, 0xda, 0x2d, 0x74, 0x77, 0xda, 0x2d,
   0x74, 0x77, 0xda, 0x2d, 0x74, 0x77, 0xda, 0x2d, 0x74, 0x77, 0xda, 0x2d,
   0xfc, 0x7f, 0xfe, 0x3f };
