#define hackerspace_adelaide_width 32
#define hackerspace_adelaide_height 16
static unsigned char hackerspace_adelaide_bits[] = {
   0x92, 0x71, 0xe9, 0x1d, 0x52, 0x0a, 0x25, 0x24, 0xde, 0x0b, 0xe3, 0x1c,
   0x52, 0x0a, 0x25, 0x14, 0x52, 0x72, 0xe9, 0x25, 0xe0, 0x8e, 0x71, 0x0f,
   0x10, 0x52, 0x0a, 0x01, 0x60, 0xce, 0x0b, 0x07, 0x80, 0x42, 0x0a, 0x01,
   0x70, 0x42, 0x72, 0x0f, 0x00, 0x00, 0x00, 0x00, 0x06, 0x2e, 0x0c, 0x70,
   0x69, 0x22, 0x52, 0x13, 0xaf, 0x26, 0x5e, 0x35, 0xa9, 0x22, 0x52, 0x15,
   0x69, 0xee, 0x52, 0x73 };
