#define hackerspace_text_width 32
#define hackerspace_text_height 16
static unsigned char hackerspace_text_bits[] = {
   0x00, 0x00, 0x00, 0x00, 0x00, 0x00, 0x00, 0x00, 0x24, 0xe3, 0xd2, 0x3b,
   0xa4, 0x14, 0x4a, 0x48, 0xbc, 0x17, 0xc6, 0x39, 0xa4, 0x14, 0x4a, 0x28,
   0xa4, 0xe4, 0xd2, 0x4b, 0x00, 0x00, 0x00, 0x00, 0x00, 0x00, 0x00, 0x00,
   0xc0, 0x1d, 0xe3, 0x1e, 0x20, 0xa4, 0x14, 0x02, 0xc0, 0x9c, 0x17, 0x0e,
   0x00, 0x85, 0x14, 0x02, 0xe0, 0x84, 0xe4, 0x1e, 0x00, 0x00, 0x00, 0x00,
   0x00, 0x00, 0x00, 0x00 };
