#define in_text_width 32
#define in_text_height 16
static unsigned char in_text_bits[] = {
   0x00, 0x00, 0x00, 0x00, 0x00, 0x00, 0x00, 0x00, 0x00, 0xce, 0xc1, 0x01,
   0x00, 0xce, 0xc3, 0x01, 0x00, 0xce, 0xc3, 0x01, 0x00, 0xce, 0xc7, 0x01,
   0x00, 0xce, 0xcf, 0x01, 0x00, 0xce, 0xcf, 0x01, 0x00, 0xce, 0xdd, 0x01,
   0x00, 0xce, 0xd9, 0x01, 0x00, 0xce, 0xf9, 0x01, 0x00, 0xce, 0xf1, 0x01,
   0x00, 0xce, 0xf1, 0x01, 0x00, 0xce, 0xe1, 0x01, 0x00, 0xce, 0xc1, 0x01,
   0x00, 0x00, 0x00, 0x00 };
