#define is_text_width 32
#define is_text_height 16
static unsigned char is_text_bits[] = {
   0x00, 0x00, 0x00, 0x00, 0x00, 0x00, 0x00, 0x00, 0x00, 0x0e, 0x3f, 0x00,
   0x00, 0x8e, 0x7f, 0x00, 0x00, 0xce, 0xf1, 0x00, 0x00, 0xce, 0xe1, 0x00,
   0x00, 0xce, 0x03, 0x00, 0x00, 0x8e, 0x1f, 0x00, 0x00, 0x0e, 0x7f, 0x00,
   0x00, 0x0e, 0xf8, 0x00, 0x00, 0x0e, 0xe0, 0x00, 0x00, 0xce, 0xc0, 0x00,
   0x00, 0xce, 0xe1, 0x00, 0x00, 0x8e, 0x7f, 0x00, 0x00, 0x0e, 0x3f, 0x00,
   0x00, 0x00, 0x00, 0x00 };
