#define session_text_width 32
#define session_text_height 16
static unsigned char session_text_bits[] = {
   0x00, 0x00, 0x00, 0x00, 0x00, 0x00, 0x00, 0x00, 0x00, 0x00, 0x00, 0x00,
   0x00, 0x00, 0x00, 0x00, 0x00, 0x00, 0x00, 0x00, 0xee, 0x39, 0x97, 0x89,
   0x21, 0x84, 0x50, 0x9a, 0xe6, 0x18, 0x53, 0xaa, 0x28, 0x20, 0x54, 0xca,
   0xe7, 0x9d, 0x93, 0x89, 0x00, 0x00, 0x00, 0x00, 0x00, 0x00, 0x00, 0x00,
   0x00, 0x00, 0x00, 0x00, 0x00, 0x00, 0x00, 0x00, 0x00, 0x00, 0x00, 0x00,
   0x00, 0x00, 0x00, 0x00 };
